<mxfile host="app.diagrams.net" modified="2023-11-26T14:37:15.394Z" agent="Mozilla/5.0 (Windows NT 10.0; Win64; x64) AppleWebKit/537.36 (KHTML, like Gecko) Chrome/119.0.0.0 Safari/537.36" etag="E4CW-9pjIyG7hCQgrvKD" version="22.1.4" type="device">
  <diagram name="Page-1" id="qpNqO1mqXg0gC7bGK559">
    <mxGraphModel dx="637" dy="344" grid="1" gridSize="10" guides="1" tooltips="1" connect="1" arrows="1" fold="1" page="1" pageScale="1" pageWidth="1169" pageHeight="827" math="0" shadow="0">
      <root>
        <mxCell id="0" />
        <mxCell id="1" parent="0" />
        <mxCell id="bZSCRquse-PofuJSayzi-1" value="" style="ellipse;whiteSpace=wrap;html=1;aspect=fixed;fillColor=#2AAD27;strokeColor=#2AAD27;" parent="1" vertex="1">
          <mxGeometry x="40" y="130" width="10" height="10" as="geometry" />
        </mxCell>
        <mxCell id="bZSCRquse-PofuJSayzi-3" value="" style="ellipse;whiteSpace=wrap;html=1;aspect=fixed;fillColor=#000000;" parent="1" vertex="1">
          <mxGeometry x="110" y="150" width="10" height="10" as="geometry" />
        </mxCell>
        <mxCell id="bZSCRquse-PofuJSayzi-4" value="" style="ellipse;whiteSpace=wrap;html=1;aspect=fixed;strokeColor=#000000;fillColor=#000000;" parent="1" vertex="1">
          <mxGeometry x="180" y="120" width="10" height="10" as="geometry" />
        </mxCell>
        <mxCell id="bZSCRquse-PofuJSayzi-5" value="" style="ellipse;whiteSpace=wrap;html=1;aspect=fixed;fillColor=#cb2b3e;strokeColor=#CB2B3E;" parent="1" vertex="1">
          <mxGeometry x="390" y="120" width="10" height="10" as="geometry" />
        </mxCell>
        <mxCell id="bZSCRquse-PofuJSayzi-7" value="" style="ellipse;whiteSpace=wrap;html=1;aspect=fixed;strokeColor=#000000;fillColor=#000000;" parent="1" vertex="1">
          <mxGeometry x="250" y="150" width="10" height="10" as="geometry" />
        </mxCell>
        <mxCell id="bZSCRquse-PofuJSayzi-8" value="" style="endArrow=classicThin;html=1;rounded=0;endFill=1;" parent="1" source="bZSCRquse-PofuJSayzi-1" target="bZSCRquse-PofuJSayzi-3" edge="1">
          <mxGeometry width="50" height="50" relative="1" as="geometry">
            <mxPoint x="10" y="170" as="sourcePoint" />
            <mxPoint x="240" y="130" as="targetPoint" />
          </mxGeometry>
        </mxCell>
        <mxCell id="bZSCRquse-PofuJSayzi-10" value="" style="endArrow=classicThin;html=1;rounded=0;endFill=1;" parent="1" source="bZSCRquse-PofuJSayzi-3" target="bZSCRquse-PofuJSayzi-4" edge="1">
          <mxGeometry width="50" height="50" relative="1" as="geometry">
            <mxPoint x="140" y="110" as="sourcePoint" />
            <mxPoint x="130" y="100" as="targetPoint" />
          </mxGeometry>
        </mxCell>
        <mxCell id="bZSCRquse-PofuJSayzi-12" value="" style="endArrow=classicThin;html=1;rounded=0;endFill=1;" parent="1" source="bZSCRquse-PofuJSayzi-4" target="bZSCRquse-PofuJSayzi-7" edge="1">
          <mxGeometry width="50" height="50" relative="1" as="geometry">
            <mxPoint x="190" y="150" as="sourcePoint" />
            <mxPoint x="240" y="160" as="targetPoint" />
          </mxGeometry>
        </mxCell>
        <mxCell id="bZSCRquse-PofuJSayzi-13" value="ðŸ—™" style="endArrow=classicThin;html=1;rounded=0;endFill=1;spacingTop=0;spacing=2;spacingLeft=0;spacingBottom=1;fontSize=18;fontColor=#808080;" parent="1" source="bZSCRquse-PofuJSayzi-7" target="bZSCRquse-PofuJSayzi-5" edge="1">
          <mxGeometry x="0.0024" width="50" height="50" relative="1" as="geometry">
            <mxPoint x="200" y="160" as="sourcePoint" />
            <mxPoint x="370" y="150" as="targetPoint" />
            <mxPoint as="offset" />
          </mxGeometry>
        </mxCell>
        <mxCell id="bZSCRquse-PofuJSayzi-14" value="" style="ellipse;whiteSpace=wrap;html=1;aspect=fixed;strokeColor=#2A81CB;fillColor=#2a81cb;" parent="1" vertex="1">
          <mxGeometry x="310" y="50" width="10" height="10" as="geometry" />
        </mxCell>
        <mxCell id="bZSCRquse-PofuJSayzi-15" value="" style="endArrow=classicThin;html=1;dashed=1;dashPattern=1 2;endFill=1;curved=1;" parent="1" source="bZSCRquse-PofuJSayzi-4" target="bZSCRquse-PofuJSayzi-14" edge="1">
          <mxGeometry width="50" height="50" relative="1" as="geometry">
            <mxPoint x="220" y="90" as="sourcePoint" />
            <mxPoint x="280" y="110" as="targetPoint" />
            <Array as="points">
              <mxPoint x="250" y="100" />
            </Array>
          </mxGeometry>
        </mxCell>
        <mxCell id="bZSCRquse-PofuJSayzi-16" value="&lt;font&gt;+&lt;/font&gt;" style="endArrow=classicThin;html=1;rounded=0;strokeColor=#2a81cb;strokeWidth=1;endFill=1;fontSize=27;fontColor=#2AAD27;" parent="1" source="bZSCRquse-PofuJSayzi-7" target="bZSCRquse-PofuJSayzi-14" edge="1">
          <mxGeometry x="0.0004" width="50" height="50" relative="1" as="geometry">
            <mxPoint x="280" y="140" as="sourcePoint" />
            <mxPoint x="300" y="120" as="targetPoint" />
            <mxPoint as="offset" />
          </mxGeometry>
        </mxCell>
        <mxCell id="bZSCRquse-PofuJSayzi-18" value="" style="endArrow=classicThin;html=1;curved=1;dashed=1;dashPattern=1 2;endFill=1;" parent="1" source="bZSCRquse-PofuJSayzi-1" target="bZSCRquse-PofuJSayzi-14" edge="1">
          <mxGeometry width="50" height="50" relative="1" as="geometry">
            <mxPoint x="200" y="160" as="sourcePoint" />
            <mxPoint x="250" y="110" as="targetPoint" />
            <Array as="points">
              <mxPoint x="150" y="40" />
            </Array>
          </mxGeometry>
        </mxCell>
        <mxCell id="bZSCRquse-PofuJSayzi-19" value="+" style="endArrow=none;html=1;rounded=0;strokeColor=#2a81cb;fontSize=27;fontColor=#2AAD27;" parent="1" source="bZSCRquse-PofuJSayzi-1" target="bZSCRquse-PofuJSayzi-14" edge="1">
          <mxGeometry width="50" height="50" relative="1" as="geometry">
            <mxPoint x="200" y="160" as="sourcePoint" />
            <mxPoint x="250" y="110" as="targetPoint" />
          </mxGeometry>
        </mxCell>
        <mxCell id="bZSCRquse-PofuJSayzi-21" value="" style="endArrow=classicThin;html=1;rounded=0;endFill=1;" parent="1" edge="1">
          <mxGeometry width="50" height="50" relative="1" as="geometry">
            <mxPoint x="40" y="190" as="sourcePoint" />
            <mxPoint x="70" y="190" as="targetPoint" />
          </mxGeometry>
        </mxCell>
        <mxCell id="bZSCRquse-PofuJSayzi-22" value="sequence" style="text;html=1;strokeColor=none;fillColor=none;align=left;verticalAlign=middle;whiteSpace=wrap;rounded=0;" parent="1" vertex="1">
          <mxGeometry x="80" y="180" width="60" height="20" as="geometry" />
        </mxCell>
        <mxCell id="bZSCRquse-PofuJSayzi-23" value="" style="endArrow=classicThin;html=1;rounded=0;dashed=1;dashPattern=1 2;endFill=1;" parent="1" edge="1">
          <mxGeometry width="50" height="50" relative="1" as="geometry">
            <mxPoint x="160" y="189.76000000000002" as="sourcePoint" />
            <mxPoint x="190" y="189.76000000000002" as="targetPoint" />
          </mxGeometry>
        </mxCell>
        <mxCell id="bZSCRquse-PofuJSayzi-24" value="arrow" style="text;html=1;strokeColor=none;fillColor=none;align=left;verticalAlign=middle;whiteSpace=wrap;rounded=0;" parent="1" vertex="1">
          <mxGeometry x="200" y="180" width="50" height="20" as="geometry" />
        </mxCell>
        <mxCell id="bZSCRquse-PofuJSayzi-25" value="" style="endArrow=none;html=1;rounded=0;strokeColor=#007FFF;" parent="1" edge="1">
          <mxGeometry width="50" height="50" relative="1" as="geometry">
            <mxPoint x="260" y="189.86" as="sourcePoint" />
            <mxPoint x="290" y="189.86" as="targetPoint" />
          </mxGeometry>
        </mxCell>
        <mxCell id="bZSCRquse-PofuJSayzi-26" value="selection criterion" style="text;html=1;strokeColor=none;fillColor=none;align=left;verticalAlign=middle;whiteSpace=wrap;rounded=0;" parent="1" vertex="1">
          <mxGeometry x="300" y="180" width="100" height="20" as="geometry" />
        </mxCell>
        <mxCell id="bZSCRquse-PofuJSayzi-27" value="+" style="endArrow=classicThin;html=1;rounded=0;strokeColor=#2a81cb;endFill=1;fontSize=27;fontColor=#2AAD27;" parent="1" source="bZSCRquse-PofuJSayzi-14" target="bZSCRquse-PofuJSayzi-5" edge="1">
          <mxGeometry x="0.0023" width="50" height="50" relative="1" as="geometry">
            <mxPoint x="330" y="70" as="sourcePoint" />
            <mxPoint x="440" y="90" as="targetPoint" />
            <mxPoint as="offset" />
          </mxGeometry>
        </mxCell>
        <mxCell id="RQMoFaeFZxJQ4j3MsZrM-1" value="s" style="text;html=1;strokeColor=none;fillColor=none;align=center;verticalAlign=middle;whiteSpace=wrap;rounded=0;fontFamily=Times New Roman;fontSize=18;fontStyle=2" vertex="1" parent="1">
          <mxGeometry x="40" y="100" width="10" height="30" as="geometry" />
        </mxCell>
        <mxCell id="RQMoFaeFZxJQ4j3MsZrM-2" value="t" style="text;html=1;strokeColor=none;fillColor=none;align=center;verticalAlign=middle;whiteSpace=wrap;rounded=0;fontFamily=Times New Roman;fontSize=18;fontStyle=2" vertex="1" parent="1">
          <mxGeometry x="390" y="90" width="10" height="30" as="geometry" />
        </mxCell>
      </root>
    </mxGraphModel>
  </diagram>
</mxfile>
